<?xml version="1.0" encoding="UTF-8" standalone="no"?>
<!-- Created with Inkscape (http://www.inkscape.org/) -->

<svg
   version="1.1"
   id="svg1"
   width="1122.5197"
   height="793.70081"
   viewBox="0 0 1122.5197 793.70081"
   sodipodi:docname="logo-full.svg"
   inkscape:version="1.4 (86a8ad7, 2024-10-11)"
   xmlns:inkscape="http://www.inkscape.org/namespaces/inkscape"
   xmlns:sodipodi="http://sodipodi.sourceforge.net/DTD/sodipodi-0.dtd"
   xmlns="http://www.w3.org/2000/svg"
   xmlns:svg="http://www.w3.org/2000/svg">
  <defs
     id="defs1" />
  <sodipodi:namedview
     id="namedview1"
     pagecolor="#ffffff"
     bordercolor="#000000"
     borderopacity="0.25"
     inkscape:showpageshadow="2"
     inkscape:pageopacity="0.0"
     inkscape:pagecheckerboard="0"
     inkscape:deskcolor="#d1d1d1"
     showgrid="false"
     inkscape:zoom="1.0268353"
     inkscape:cx="560.94682"
     inkscape:cy="396.8504"
     inkscape:window-width="1920"
     inkscape:window-height="1017"
     inkscape:window-x="-8"
     inkscape:window-y="-8"
     inkscape:window-maximized="1"
     inkscape:current-layer="layer-Pr7">
    <inkscape:page
       x="0"
       y="0"
       inkscape:label="1"
       id="page1"
       width="1122.5197"
       height="793.70081"
       margin="0"
       bleed="0" />
  </sodipodi:namedview>
  <g
     id="layer-Pr7"
     inkscape:groupmode="layer"
     inkscape:label="Warstwa 1">
    <path
       id="path1"
       d="m 103.7869,167.1443 v 48.9115 h -1.9168 c -2.6575,0 -5.1874,-0.0895 -7.5895,-0.2684 -2.4024,-0.1789 -4.8044,-0.396 -7.2065,-0.6517 l 0.0768,2.2232 -0.0768,2.4534 h 39.6351 l -0.3067,-2.4534 0.3067,-2.2232 c -2.5044,0.3067 -5.0085,0.5366 -7.5129,0.69 -2.5044,0.1533 -5.3921,0.2301 -8.663,0.2301 v -48.9883 l -3.45,0.3067 z"
       style="fill:#323092;fill-opacity:1;fill-rule:nonzero;stroke:none"
       transform="matrix(1.3333333,0,0,-1.3333333,0,793.7008)" />
    <path
       id="path2"
       d="m 135.6021,219.8123 3.1433,-0.3067 3.6031,0.3067 v -52.668 l -3.4497,0.3833 -3.2967,-0.3067 z"
       style="fill:#323092;fill-opacity:1;fill-rule:nonzero;stroke:none"
       transform="matrix(1.3333333,0,0,-1.3333333,0,793.7008)" />
    <path
       id="path3"
       d="m 162.3577,191.37 v -24.2257 l -3.4497,0.3833 -3.4501,-0.3067 v 39.2519 13.3395 h 17.0961 c 5.9799,0 10.222,-0.9966 12.7264,-3.0027 2.5041,-2.0061 3.7565,-5.2132 3.7565,-9.6341 0,-4.523 -1.38,-8.0496 -4.14,-10.5667 -2.5555,-2.3128 -6.6187,-4.0505 -12.1896,-5.2388 l -4.6763,-0.3067 z m 0,25.4523 V 194.36 l 3.4498,-0.1533 c 0.7157,0 1.3289,0 1.84,0 0.5111,0 0.9201,0 1.2268,0 h 0.9964 c 3.8333,0.3577 6.8105,1.6738 8.9314,3.9226 2.1211,2.2614 3.1816,5.1491 3.1816,8.6629 0,2.9004 -0.6645,5.2387 -1.9933,7.0019 -1.5333,2.0188 -3.7565,3.0282 -6.6697,3.0282 -0.5111,0 -1.5843,0 -3.2198,0 -1.6356,0 -2.9132,0 -3.8333,0 z"
       style="fill:#323092;fill-opacity:1;fill-rule:nonzero;stroke:none"
       transform="matrix(1.3333333,0,0,-1.3333333,0,793.7008)" />
    <path
       id="path4"
       d="m 230.2818,167.1443 v 48.9115 h -1.9168 c -2.6575,0 -5.1874,-0.0895 -7.5895,-0.2684 -2.4023,-0.1789 -4.8044,-0.396 -7.2065,-0.6517 l 0.0768,2.2232 -0.0768,2.4534 h 39.6352 l -0.3068,-2.4534 0.3068,-2.2232 c -2.5045,0.3067 -5.0086,0.5366 -7.513,0.69 -2.5044,0.1533 -5.3921,0.2301 -8.6629,0.2301 v -48.9883 l -3.4501,0.3067 z"
       style="fill:#323092;fill-opacity:1;fill-rule:nonzero;stroke:none"
       transform="matrix(1.3333333,0,0,-1.3333333,0,793.7008)" />
    <path
       id="path5"
       d="m 258.0338,193.4782 c 0,7.5004 2.4024,13.8634 7.2065,19.0638 5.2132,5.6092 12.0362,8.4203 20.4693,8.4203 h 0.6134 c 9.6083,0 17.0192,-2.7343 22.2324,-8.1904 4.5488,-4.7531 6.823,-10.7711 6.823,-18.0669 0,-8.676 -2.8363,-15.6396 -8.5096,-20.9038 -5.3665,-4.9448 -12.164,-7.4237 -20.3924,-7.4237 h -0.3067 c -7.7176,0 -14.0806,1.9934 -19.0894,5.967 -6.031,4.8044 -9.0465,11.8445 -9.0465,21.1337 z m 7.5133,-0.3065 c 0,-7.7048 1.942,-13.6972 5.839,-17.9906 3.731,-4.127 8.8294,-6.1968 15.2819,-6.1968 5.7881,0 10.7328,2.1719 14.8215,6.5035 4.3061,4.5488 6.4525,10.3368 6.4525,17.3772 v 1.9931 c 0,7.3981 -1.9037,13.1734 -5.7112,17.3389 -3.8078,4.1525 -8.8549,6.2354 -15.1413,6.2354 -7.0532,0 -12.5218,-2.6067 -16.4061,-7.8069 -3.4242,-4.587 -5.1363,-10.4136 -5.1363,-17.4538"
       style="fill:#323092;fill-opacity:1;fill-rule:nonzero;stroke:none"
       transform="matrix(1.3333333,0,0,-1.3333333,0,793.7008)" />
    <path
       id="path6"
       d="m 331.4013,191.37 v -24.2257 l -3.4498,0.3833 -3.4501,-0.3067 v 39.2519 13.3395 h 17.0961 c 5.9799,0 10.222,-0.9966 12.7264,-3.0027 2.5041,-2.0061 3.7565,-5.2132 3.7565,-9.6341 0,-4.523 -1.3799,-8.0496 -4.14,-10.5667 -2.5555,-2.3128 -6.6186,-4.0505 -12.1896,-5.2388 l -4.6763,-0.3067 z m 0,25.4523 V 194.36 l 3.4497,-0.1533 c 0.7158,0 1.3289,0 1.84,0 0.5111,0 0.9201,0 1.2268,0 h 0.9964 c 3.8333,0.3577 6.8105,1.6738 8.9314,3.9226 2.1212,2.2614 3.1816,5.1491 3.1816,8.6629 0,2.9004 -0.6644,5.2387 -1.9933,7.0019 -1.5333,2.0188 -3.7565,3.0282 -6.6696,3.0282 -0.5111,0 -1.5843,0 -3.2199,0 -1.6356,0 -2.9132,0 -3.8333,0 z"
       style="fill:#323092;fill-opacity:1;fill-rule:nonzero;stroke:none"
       transform="matrix(1.3333333,0,0,-1.3333333,0,793.7008)" />
    <path
       id="path7"
       d="m 384.0693,193.9382 c 0,8.1136 2.6319,14.643 7.8961,19.6005 5.2643,4.9447 12.2664,7.4236 21.0059,7.4236 2.7088,0 5.3793,-0.2684 8.0116,-0.805 2.6319,-0.5366 5.4558,-1.4695 8.4713,-2.7984 -0.3577,-0.7665 -0.6644,-1.597 -0.9201,-2.4913 -0.2554,-0.8947 -0.5111,-2.0061 -0.7665,-3.335 l -0.5366,-0.1534 c -1.891,2.0954 -4.14,3.7182 -6.7465,4.8683 -2.6067,1.15 -5.2132,1.7248 -7.8196,1.7248 -6.3377,0 -11.4358,-2.2104 -15.2946,-6.6186 -3.8588,-4.4209 -5.7881,-10.3751 -5.7881,-17.8755 0,-7.7556 2.1722,-13.8507 6.5166,-18.2971 3.833,-3.8716 8.4841,-5.8136 13.9527,-5.8136 2.9644,0 5.8263,0.5494 8.5864,1.6611 2.7598,1.1115 5.3407,2.632 7.7428,4.5488 l -0.4598,-4.8682 c -2.6067,-1.5205 -5.3665,-2.6195 -8.2797,-3.3095 -2.9131,-0.6772 -5.7753,-1.0222 -8.5864,-1.0222 -8.3307,0 -14.9111,2.4407 -19.741,7.3086 -4.8297,4.881 -7.2445,11.6274 -7.2445,20.2521"
       style="fill:#323092;fill-opacity:1;fill-rule:nonzero;stroke:none"
       transform="matrix(1.3333333,0,0,-1.3333333,0,793.7008)" />
    <path
       id="path8"
       d="m 439.1906,167.5276 v 52.2847 l 2.8367,-0.3067 3.9098,0.3067 v -48.6816 l 2.3766,-0.1534 c 2.8108,0 5.8391,0.1151 9.0844,0.345 3.2457,0.2302 6.4525,0.5241 9.6214,0.8819 l -0.3067,-2.6068 c 0.1533,-0.5111 0.2429,-0.8816 0.2684,-1.1114 0.0255,-0.2302 0.0383,-0.5497 0.0383,-0.9584 z"
       style="fill:#323092;fill-opacity:1;fill-rule:nonzero;stroke:none"
       transform="matrix(1.3333333,0,0,-1.3333333,0,793.7008)" />
    <path
       id="path9"
       d="m 477.5224,167.5276 v 52.2847 h 27.2157 l -0.3067,-2.6064 0.3067,-2.0702 c -1.7889,0.3577 -3.9866,0.6262 -6.5931,0.8051 -2.6067,0.1788 -4.9833,0.2684 -7.1299,0.2684 h -6.7462 v -19.3195 h 11.9594 c 0.511,0 1.559,0.0768 3.1433,0.2301 1.5843,0.1534 2.7853,0.2299 3.6031,0.2299 l -0.3067,-2.1464 0.3067,-2.0701 -6.7464,0.4601 h -11.9594 v -22.4626 l 1.7631,-0.1534 c 2.8622,0 6.2737,0.1151 10.2348,0.345 3.9609,0.2302 6.9381,0.5241 8.9311,0.8819 l -0.3067,-2.1467 0.3067,-2.5299 z"
       style="fill:#323092;fill-opacity:1;fill-rule:nonzero;stroke:none"
       transform="matrix(1.3333333,0,0,-1.3333333,0,793.7008)" />
    <path
       id="path10"
       d="m 510.1809,167.1443 23.9194,53.818 h 1.8396 l 22.9992,-53.7414 -4.4464,0.3067 -3.6031,-0.3833 c -2.3511,6.9253 -5.0599,13.9017 -8.1264,20.9291 h -19.3961 c -1.1755,-3.1303 -2.1721,-5.6985 -2.9899,-7.6919 -2.2488,-5.7498 -3.8075,-10.1579 -4.6763,-13.2372 l -2.8367,0.3833 z m 14.643,24.0724 h 16.8403 l -8.6374,19.6004 z"
       style="fill:#323092;fill-opacity:1;fill-rule:nonzero;stroke:none"
       transform="matrix(1.3333333,0,0,-1.3333333,0,793.7008)" />
    <path
       id="path11"
       d="m 567.8323,167.1443 v 52.668 h 2.9899 l 36.4921,-39.5586 h 0.7665 v 39.5586 l 2.0699,-0.3067 2.3,0.3067 v -52.668 h -2.4534 c -4.4974,5.1747 -8.5861,9.8257 -12.2661,13.9782 -4.1397,4.5615 -8.2797,9.1358 -12.4194,13.7486 -4.14,4.6126 -8.2797,9.2123 -12.4197,13.8249 h -0.7665 v -41.4751 l -2.3766,0.3067 z"
       style="fill:#323092;fill-opacity:1;fill-rule:nonzero;stroke:none"
       transform="matrix(1.3333333,0,0,-1.3333333,0,793.7008)" />
    <path
       id="path12"
       d="m 627.0934,219.8123 3.1433,-0.3067 3.6031,0.3067 v -52.668 l -3.4498,0.3833 -3.2966,-0.3067 z"
       style="fill:#323092;fill-opacity:1;fill-rule:nonzero;stroke:none"
       transform="matrix(1.3333333,0,0,-1.3333333,0,793.7008)" />
    <path
       id="path13"
       d="m 648.6358,167.1443 v 52.668 h 2.99 l 36.4921,-39.5586 h 0.7665 v 39.5586 l 2.0698,-0.3067 2.3001,0.3067 v -52.668 h -2.4534 c -4.4975,5.1747 -8.5862,9.8257 -12.2661,13.9782 -4.1397,4.5615 -8.2797,9.1358 -12.4194,13.7486 -4.14,4.6126 -8.2797,9.2123 -12.4197,13.8249 h -0.7665 v -41.4751 l -2.3766,0.3067 z"
       style="fill:#323092;fill-opacity:1;fill-rule:nonzero;stroke:none"
       transform="matrix(1.3333333,0,0,-1.3333333,0,793.7008)" />
    <path
       id="path14"
       d="m 705.3673,193.6315 c 0,7.1425 1.8655,12.9691 5.5964,17.4538 3.0152,3.6289 7.1297,6.2736 12.3429,7.9602 3.9354,1.2779 7.9472,1.9168 12.0362,1.9168 3.2199,0 6.3119,-0.2812 9.2761,-0.8433 3.8843,-0.7667 7.2833,-1.9678 10.1965,-3.6034 l -1.6101,-5.9797 h -0.9198 c -1.7377,1.9423 -3.68,3.5011 -5.8266,4.6766 -3.4243,1.84 -7.2831,2.7598 -11.5762,2.7598 -6.4397,0 -11.6019,-1.942 -15.4862,-5.8135 -4.3441,-4.2934 -6.5163,-10.5157 -6.5163,-18.6806 0,-7.6025 2.0444,-13.5185 6.1331,-17.7605 4.0887,-4.2293 9.6851,-6.3502 16.7893,-6.3502 2.6067,0 4.8554,0.2172 6.7464,0.6517 1.891,0.4343 3.629,1.086 5.2132,1.942 v 19.6387 l 3.4498,-0.2299 3.2967,0.2299 v -21.632 c -4.1783,-1.2776 -7.4747,-2.1336 -9.8768,-2.5937 -3.3604,-0.6644 -6.9893,-0.9967 -10.8609,-0.9967 -9.1358,0 -16.2272,2.5555 -21.2868,7.6536 -4.7404,4.8044 -7.1169,11.1801 -7.1169,19.1406 z"
       style="fill:#323092;fill-opacity:1;fill-rule:nonzero;stroke:none"
       transform="matrix(1.3333333,0,0,-1.3333333,0,793.7008)" />
    <path
       id="path15"
       d="m 243.5851,90.7135 c 1.4272,9.3892 2.7706,19.002 4.03,28.8391 h 1.0494 c 1.9032,-3.7222 3.8061,-7.4441 5.7089,-11.1662 2.071,-3.9461 4.1281,-7.5841 6.1711,-10.9146 l 12.0478,22.0808 h 0.9235 c 0.4757,-4.6735 0.8396,-8.0597 1.0913,-10.1588 0.5599,-4.8135 0.9236,-7.9058 1.0917,-9.2772 0.4198,-3.1346 0.8396,-6.255 1.2591,-9.3612 l -2.1407,0.1678 c -0.4479,-0.1048 -0.7696,-0.1678 -0.9655,-0.1819 -0.1959,-0.021 -0.4759,-0.0278 -0.8396,-0.0278 -0.3359,3.6451 -0.6718,7.3672 -1.0074,11.1662 -0.3359,3.799 -0.7138,7.3392 -1.1336,10.6206 -1.2872,-2.2949 -2.5605,-4.5899 -3.82,-6.8845 -1.3992,-2.5747 -2.6586,-4.9465 -3.778,-7.1155 -1.1194,-2.1688 -2.2669,-4.5825 -3.4424,-7.2412 h -0.4198 c -1.3992,2.8826 -2.5605,5.2473 -3.4841,7.0943 -0.6996,1.3714 -1.917,3.7361 -3.6521,7.0943 -1.2314,2.351 -2.4628,4.7018 -3.6941,7.0526 -0.252,-2.2669 -0.5318,-4.7157 -0.8397,-7.3463 -0.4198,-3.5263 -0.6995,-5.9749 -0.8396,-7.3463 -0.2517,-2.7147 -0.3778,-5.0655 -0.3778,-7.0523 l -1.5531,0.1678 z"
       style="fill:#323092;fill-opacity:1;fill-rule:nonzero;stroke:none"
       transform="matrix(1.3333333,0,0,-1.3333333,0,793.7008)" />
    <path
       id="path16"
       d="m 280.8201,105.133 c 0,4.1069 1.3153,7.5912 3.9459,10.4386 2.8547,3.0714 6.5908,4.6106 11.2084,4.6106 h 0.3356 c 5.2614,0 9.3195,-1.497 12.174,-4.4847 2.4908,-2.6025 3.7361,-5.8978 3.7361,-9.8929 0,-4.7506 -1.5531,-8.5635 -4.6596,-11.446 -2.9384,-2.7077 -6.6606,-4.0649 -11.1663,-4.0649 h -0.1681 c -4.2258,0 -7.7099,1.0913 -10.4524,3.2672 -3.3024,2.6305 -4.9536,6.4857 -4.9536,11.5721 z m 4.1139,-0.1681 c 0,-4.2188 1.0633,-7.4999 3.1972,-9.8509 2.0433,-2.2598 4.8348,-3.3931 8.3679,-3.3931 3.1694,0 5.8771,1.1894 8.1159,3.5612 2.3579,2.4908 3.5331,5.6599 3.5331,9.515 v 1.0914 c 0,4.051 -1.0423,7.2133 -3.1275,9.4943 -2.0849,2.2737 -4.8483,3.4141 -8.2907,3.4141 -3.862,0 -6.8565,-1.4273 -8.9833,-4.2747 -1.8751,-2.5117 -2.8126,-5.7021 -2.8126,-9.5573 z m 9.8649,17.0643 5.961,5.9752 c 0.4198,0.4198 0.7557,0.6996 1.0074,0.8396 0.252,0.1397 0.5179,0.2098 0.7977,0.2098 0.4198,0 0.7625,-0.1469 1.0284,-0.4408 0.2659,-0.294 0.3988,-0.6647 0.3988,-1.1055 0,-0.2798 -0.091,-0.5176 -0.2727,-0.7135 -0.182,-0.1959 -0.4549,-0.4198 -0.8186,-0.6718 l -6.6328,-4.093 z"
       style="fill:#323092;fill-opacity:1;fill-rule:nonzero;stroke:none"
       transform="matrix(1.3333333,0,0,-1.3333333,0,793.7008)" />
    <path
       id="path17"
       d="m 323.5893,90.7135 c -1.3434,4.4566 -2.7845,9.1233 -4.3166,13.9997 -1.7632,5.5761 -3.3724,10.5225 -4.8277,14.8394 l 1.889,-0.1678 2.0151,0.1678 c 0.7555,-2.6586 1.5112,-5.3033 2.2666,-7.9339 0.8677,-2.9387 1.6512,-5.5763 2.3511,-7.9129 0.6996,-2.3369 1.567,-5.1004 2.6025,-8.2908 h 0.4198 c 1.5111,4.3098 2.8964,8.3257 4.1558,12.0478 1.5112,4.4499 2.8268,8.4796 3.9462,12.0898 0.2517,0 0.4895,-0.021 0.7134,-0.0629 0.224,-0.042 0.406,-0.0771 0.5457,-0.1049 l 1.2175,0.1678 7.9758,-24.1376 h 0.3779 c 0.8396,2.5186 1.7631,5.3311 2.7706,8.4376 0.9235,2.8826 1.7421,5.5131 2.4556,7.892 0.7138,2.3788 1.4905,4.9816 2.3301,7.808 l 1.2172,-0.1678 1.7212,0.1678 c -0.6438,-1.5392 -1.5392,-3.9881 -2.6867,-7.3321 -1.1474,-3.3514 -2.2878,-6.7096 -3.4072,-10.0749 -1.4553,-4.261 -2.7845,-8.0668 -3.9881,-11.4321 l -1.3853,0.2097 -1.3853,-0.2097 -7.647,23.6687 -0.3359,0.007 -8.0946,-23.6758 -1.4695,0.2097 -1.4272,-0.2097 z"
       style="fill:#323092;fill-opacity:1;fill-rule:nonzero;stroke:none"
       transform="matrix(1.3333333,0,0,-1.3333333,0,793.7008)" />
    <path
       id="path18"
       d="m 359.9498,119.5526 1.7209,-0.1678 1.9732,0.1678 V 90.7135 l -1.889,0.2097 -1.8051,-0.1678 z"
       style="fill:#323092;fill-opacity:1;fill-rule:nonzero;stroke:none"
       transform="matrix(1.3333333,0,0,-1.3333333,0,793.7008)" />
    <path
       id="path19"
       d="m 369.4368,90.7135 c 1.4273,9.3892 2.7706,19.002 4.03,28.8391 h 1.0494 c 1.9032,-3.7222 3.8061,-7.4441 5.709,-11.1662 2.071,-3.9461 4.1281,-7.5841 6.171,-10.9146 l 12.0478,22.0808 h 0.9236 c 0.4756,-4.6735 0.8396,-8.0597 1.0913,-10.1588 0.5598,-4.8135 0.9235,-7.9058 1.0916,-9.2772 0.4198,-3.1346 0.8396,-6.255 1.2592,-9.3612 l -2.1408,0.1678 c -0.4478,-0.1048 -0.7696,-0.1678 -0.9654,-0.1819 -0.1959,-0.021 -0.476,-0.0278 -0.8397,-0.0278 -0.3359,3.6451 -0.6718,7.3672 -1.0074,11.1662 -0.3359,3.799 -0.7138,7.3392 -1.1336,10.6206 -1.2872,-2.2949 -2.5605,-4.5899 -3.8199,-6.8845 -1.3992,-2.5747 -2.6586,-4.9465 -3.778,-7.1155 -1.1195,-2.1688 -2.2669,-4.5825 -3.4424,-7.2412 h -0.4199 c -1.3991,2.8826 -2.5605,5.2473 -3.484,7.0943 -0.6996,1.3714 -1.9171,3.7361 -3.6522,7.0943 -1.2313,2.351 -2.4627,4.7018 -3.6941,7.0526 -0.252,-2.2669 -0.5318,-4.7157 -0.8396,-7.3463 -0.4198,-3.5263 -0.6996,-5.9749 -0.8396,-7.3463 -0.2517,-2.7147 -0.3779,-5.0655 -0.3779,-7.0523 l -1.5531,0.1678 z"
       style="fill:#323092;fill-opacity:1;fill-rule:nonzero;stroke:none"
       transform="matrix(1.3333333,0,0,-1.3333333,0,793.7008)" />
    <path
       id="path20"
       d="m 416.033,102.8871 -10.3266,16.6655 2.4347,-0.1678 2.2249,0.1678 c 0.7557,-1.4272 1.6092,-2.9945 2.5605,-4.7015 1.5954,-2.8545 2.435,-4.366 2.5189,-4.5338 0.0839,-0.1678 1.0355,-1.7912 2.8545,-4.8696 0.9235,1.3433 1.868,2.8338 2.8335,4.4708 0.9655,1.6373 1.8612,3.2465 2.6867,4.8277 0.8257,1.5811 1.6721,3.1833 2.5398,4.8064 l 1.637,-0.1678 1.6373,0.1678 c -0.7557,-0.9235 -1.9451,-2.6657 -3.5682,-5.2123 -1.3992,-2.1898 -2.7706,-4.4076 -4.114,-6.6606 -1.3433,-2.2598 -2.0849,-3.5822 -2.2249,-3.9739 V 90.7135 l -1.9729,0.2097 -1.7212,-0.1678 z"
       style="fill:#323092;fill-opacity:1;fill-rule:nonzero;stroke:none"
       transform="matrix(1.3333333,0,0,-1.3333333,0,793.7008)" />
    <path
       id="path21"
       d="m 443.0254,105.3848 c 0,4.4427 1.4411,8.018 4.3236,10.7325 2.8826,2.7076 6.7164,4.0649 11.5022,4.0649 1.4831,0 2.9455,-0.1469 4.3866,-0.4408 1.4414,-0.2937 2.9877,-0.8045 4.6386,-1.5321 -0.1959,-0.4199 -0.3637,-0.8745 -0.5037,-1.3644 -0.1398,-0.4898 -0.2798,-1.0984 -0.4198,-1.826 l -0.2937,-0.0839 c -1.0355,1.1474 -2.2669,2.0358 -3.6941,2.6657 -1.4272,0.6295 -2.8545,0.9445 -4.282,0.9445 -3.4702,0 -6.2617,-1.2104 -8.3747,-3.6241 -2.1129,-2.4208 -3.1694,-5.6812 -3.1694,-9.7881 0,-4.2468 1.1894,-7.5841 3.5682,-10.019 2.0991,-2.1198 4.6457,-3.1833 7.6403,-3.1833 1.6231,0 3.1904,0.301 4.7015,0.9096 1.5112,0.6086 2.9245,1.4411 4.2398,2.4908 l -0.2517,-2.6657 c -1.4273,-0.8325 -2.9387,-1.4343 -4.5338,-1.8122 -1.5953,-0.3707 -3.1623,-0.5595 -4.7015,-0.5595 -4.5618,0 -8.1649,1.3362 -10.8096,4.0019 -2.6448,2.6725 -3.9668,6.3666 -3.9668,11.0892"
       style="fill:#323092;fill-opacity:1;fill-rule:nonzero;stroke:none"
       transform="matrix(1.3333333,0,0,-1.3333333,0,793.7008)" />
    <path
       id="path22"
       d="m 471.9064,119.5526 h 22.0388 v -0.8396 c -6.2127,-8.1437 -12.3137,-16.7494 -18.3027,-25.8168 l 6.5908,-0.0839 c 1.2872,0.1678 3.0643,0.3217 5.3311,0.4617 2.2669,0.14 4.3379,0.2101 6.213,0.2101 l -0.1681,-1.3434 0.1681,-1.2175 h -23.5919 v 0.8816 c 2.2669,3.2185 4.3518,6.143 6.2547,8.7735 2.6586,3.7222 4.6595,6.5347 6.0029,8.4376 2.2669,3.2466 4.2398,6.1291 5.919,8.6477 h -2.183 c -5.3172,0 -10.0748,-0.2239 -14.2727,-0.6715 l 0.0842,1.3853 z"
       style="fill:#323092;fill-opacity:1;fill-rule:nonzero;stroke:none"
       transform="matrix(1.3333333,0,0,-1.3333333,0,793.7008)" />
    <path
       id="path23"
       d="m 506.245,102.8871 -10.3266,16.6655 2.4347,-0.1678 2.2249,0.1678 c 0.7557,-1.4272 1.6092,-2.9945 2.5606,-4.7015 1.5953,-2.8545 2.4349,-4.366 2.5188,-4.5338 0.0839,-0.1678 1.0355,-1.7912 2.8545,-4.8696 0.9235,1.3433 1.868,2.8338 2.8335,4.4708 0.9655,1.6373 1.8612,3.2465 2.6867,4.8277 0.8257,1.5811 1.6722,3.1833 2.5398,4.8064 l 1.637,-0.1678 1.6373,0.1678 c -0.7557,-0.9235 -1.9451,-2.6657 -3.5682,-5.2123 -1.3992,-2.1898 -2.7706,-4.4076 -4.1139,-6.6606 -1.3434,-2.2598 -2.0849,-3.5822 -2.225,-3.9739 V 90.7135 l -1.9729,0.2097 -1.7212,-0.1678 z"
       style="fill:#323092;fill-opacity:1;fill-rule:nonzero;stroke:none"
       transform="matrix(1.3333333,0,0,-1.3333333,0,793.7008)" />
    <path
       id="path24"
       d="m 523.3725,112.3322 c 0,2.7147 1.0355,4.7715 3.1062,6.171 1.6793,1.1194 3.7222,1.679 6.1291,1.679 1.2872,0 2.4557,-0.1888 3.5051,-0.5667 1.0496,-0.3778 1.9099,-0.8745 2.5817,-1.4901 -0.1678,-0.3637 -0.3778,-0.9307 -0.6295,-1.7003 -0.252,-0.7696 -0.434,-1.3501 -0.546,-1.7419 h -0.3776 c -0.4759,1.2592 -1.1826,2.1898 -2.12,2.7916 -0.9374,0.6015 -1.98,0.9026 -3.1275,0.9026 -1.5111,0 -2.7634,-0.4689 -3.757,-1.4066 -0.9935,-0.9374 -1.4902,-2.0778 -1.4902,-3.4211 0,-1.4273 0.4337,-2.6167 1.3014,-3.5683 0.6157,-0.6996 1.4831,-1.2872 2.6025,-1.7631 l 4.3659,-1.8049 c 1.5951,-0.6437 2.7845,-1.4623 3.568,-2.4698 0.8957,-1.1474 1.3433,-2.6376 1.3433,-4.4776 0,-2.3998 -0.9093,-4.485 -2.7286,-6.241 -2.0149,-1.952 -4.6315,-2.9313 -7.85,-2.9313 -1.2313,0 -2.4695,0.2378 -3.7151,0.7066 -1.2452,0.4757 -2.2178,1.0562 -2.9174,1.7561 0.161,0.4966 0.3079,1.0213 0.4408,1.5602 0.1259,0.5457 0.2378,1.2733 0.3149,2.1898 h 0.4198 c 1.0423,-1.7212 2.2179,-2.9245 3.5402,-3.617 0.7835,-0.4131 1.7842,-0.6789 2.9875,-0.7906 1.7421,0 3.2043,0.6015 4.3798,1.798 1.1823,1.2033 1.7699,2.5957 1.7699,4.1839 0,1.1753 -0.3217,2.2247 -0.9654,3.1624 -0.6438,0.9303 -1.6932,1.707 -3.1485,2.3227 l -4.1559,1.7141 c -1.9868,0.7835 -3.3582,1.9309 -4.1139,3.4424 -0.4756,0.9513 -0.7135,2.1549 -0.7135,3.6099"
       style="fill:#323092;fill-opacity:1;fill-rule:nonzero;stroke:none"
       transform="matrix(1.3333333,0,0,-1.3333333,0,793.7008)" />
    <path
       id="path25"
       d="m 551.7082,90.7135 v 26.7823 h -1.0496 c -1.4551,0 -2.8404,-0.0491 -4.1559,-0.1471 -1.3153,-0.0978 -2.6306,-0.2169 -3.9458,-0.3566 l 0.0419,1.2172 -0.0419,1.3433 h 21.7028 l -0.1678,-1.3433 0.1678,-1.2172 c -1.3714,0.1678 -2.7425,0.2936 -4.1139,0.3775 -1.3714,0.0842 -2.9525,0.1262 -4.7435,0.1262 V 90.6712 l -1.889,0.1681 z"
       style="fill:#323092;fill-opacity:1;fill-rule:nonzero;stroke:none"
       transform="matrix(1.3333333,0,0,-1.3333333,0,793.7008)" />
    <path
       id="path26"
       d="m 566.9045,105.133 c 0,4.1069 1.3152,7.5912 3.9458,10.4386 2.8548,3.0714 6.5908,4.6106 11.2085,4.6106 h 0.3356 c 5.2614,0 9.3195,-1.497 12.1739,-4.4847 2.4908,-2.6025 3.7361,-5.8978 3.7361,-9.8929 0,-4.7506 -1.5531,-8.5635 -4.6596,-11.446 -2.9384,-2.7077 -6.6605,-4.0649 -11.1662,-4.0649 h -0.1681 c -4.2259,0 -7.71,1.0913 -10.4525,3.2672 -3.3023,2.6305 -4.9535,6.4857 -4.9535,11.5721 z m 4.1139,-0.1681 c 0,-4.2188 1.0633,-7.4999 3.1972,-9.8509 2.0432,-2.2598 4.8348,-3.3931 8.3679,-3.3931 3.1694,0 5.877,1.1894 8.1158,3.5612 2.3579,2.4908 3.5331,5.6599 3.5331,9.515 v 1.0914 c 0,4.051 -1.0423,7.2133 -3.1274,9.4943 -2.0849,2.2737 -4.8484,3.4141 -8.2908,3.4141 -3.8619,0 -6.8564,-1.4273 -8.9833,-4.2747 -1.8751,-2.5117 -2.8125,-5.7021 -2.8125,-9.5573"
       style="fill:#323092;fill-opacity:1;fill-rule:nonzero;stroke:none"
       transform="matrix(1.3333333,0,0,-1.3333333,0,793.7008)" />
    <path
       id="path27"
       d="m 420.9449,493.1229 c 61.327,0 111.0424,-49.3398 111.0424,-110.2039 0,-60.8641 -49.7154,-110.204 -111.0424,-110.204 -61.327,0 -111.0424,49.3399 -111.0424,110.204 0,60.8641 49.7154,110.2039 111.0424,110.2039 z"
       style="fill:#342f92;fill-opacity:1;fill-rule:evenodd;stroke:#231f20;stroke-width:0.5669;stroke-linecap:butt;stroke-linejoin:miter;stroke-miterlimit:22.9256;stroke-dasharray:none;stroke-opacity:1"
       transform="matrix(1.3333333,0,0,-1.3333333,0,793.7008)" />
    <path
       id="path28"
       d="m 399.4248,496.0012 c 152.8702,25.2675 191.0138,-194.5057 44.5915,-226.0826 -70.2612,-15.1534 -126.7945,36.1871 -136.809,91.8647 -12.5192,69.5993 35.8804,124.9058 92.2175,134.2179 z M 541.8255,362.3085 C 554.7591,435.6499 501.3,492.645 442.0979,503.0099 368.178,515.9503 309.6575,463.2265 299.8193,402.88 287.7701,328.9765 341.4634,271.4173 401.7152,262.3734 c 73.1237,-10.9775 129.3965,39.1773 140.1103,99.9351"
       style="fill:#342f92;fill-opacity:1;fill-rule:evenodd;stroke:none"
       transform="matrix(1.3333333,0,0,-1.3333333,0,793.7008)" />
    <path
       id="path29"
       d="m 358.7247,362.0914 26.316,-1.2127 -0.5828,-28.2979 -25.4381,0.9456 z m 32.722,-6.7802 c -0.005,7.3542 0.1911,9.4623 7.6581,10.5718 7.1702,1.0653 36.7758,-0.3866 41.0284,-12.7499 -5.9913,-3.4132 -6.2881,-2.3817 -13.8368,-1.065 -7.5906,1.3255 -9.1783,3.558 -14.7977,-1.1123 3.2301,-2.1288 -1.6968,0.0643 4.5442,-2.5549 31.2775,-13.1284 37.493,17.498 62.4935,12.5841 1.1103,-3.7065 4.7545,5.5973 0.0363,-6.4947 -2.0702,-5.3062 -28.6246,-20.3119 -34.2664,-22.4742 -19.5514,-7.4951 -18.5184,3.7156 -52.7326,2.8729 z m -36.1905,11.6751 -1.5721,-39.4711 c 16.3378,-1.3708 28.6368,-0.4121 43.6136,1.5197 16.5226,2.1311 22.1683,-7.5694 38.2689,-5.6426 9.9666,1.1931 24.0168,9.388 31.4994,14.1516 30.9535,19.7048 18.9125,34.4228 -0.902,29.213 -6.7861,-1.7841 -13.9141,-6.6778 -19.0843,-8.941 -24.5534,22.3554 -52.1101,11.3947 -65.406,10.1761 -8.9237,-0.8178 -18.714,0.9482 -26.4175,-1.0057"
       style="fill:#f7f7fc;fill-opacity:1;fill-rule:evenodd;stroke:none"
       transform="matrix(1.3333333,0,0,-1.3333333,0,793.7008)" />
    <path
       id="path30"
       d="m 391.4467,355.3112 0.3141,-22.4847 c 7.9004,0.1945 13.7937,1.6331 18.6066,1.0905 16.0322,-1.8079 18.902,-7.6654 33.9389,-1.9009 5.6418,2.1623 34.1031,17.009 36.1732,22.3149 3.8914,13.1482 -4.7511,10.3972 -17.5943,4.8651 -0.5573,-0.2398 -1.1237,-0.4856 -1.6952,-0.7345 -14.0493,-6.1225 -32.4532,-14.7577 -45.1471,-10.0607 -6.241,2.6192 -1.3141,0.4261 -4.5442,2.5549 4.0561,3.3712 -0.1205,2.3034 7.1436,2.5064 0.339,0.01 6.6674,-1.222 7.6541,-1.3941 7.5487,-1.3167 7.8455,-2.3482 13.8368,1.065 -4.2526,12.3633 -33.8582,13.8152 -41.0284,12.7499 -7.467,-1.1095 -7.6632,-3.2176 -7.6581,-10.5718"
       style="fill:#342f92;fill-opacity:1;fill-rule:evenodd;stroke:none"
       transform="matrix(1.3333333,0,0,-1.3333333,0,793.7008)" />
    <path
       id="path31"
       d="m 359.0198,333.5264 25.4381,-0.9456 0.5828,28.2979 -26.316,1.2127 z"
       style="fill:#342f92;fill-opacity:1;fill-rule:evenodd;stroke:none"
       transform="matrix(1.3333333,0,0,-1.3333333,0,793.7008)" />
    <path
       id="path32"
       d="m 440.7415,418.6125 c 51.5316,-58.3075 -53.0856,-54.0635 0,0 z m -0.2035,4.1174 c -17.0717,-11.6938 -33.1682,-49.957 0.0172,-49.9405 30.1465,0.0158 20.9787,36 -0.0172,49.9405"
       style="fill:#f2f3fb;fill-opacity:1;fill-rule:evenodd;stroke:none"
       transform="matrix(1.3333333,0,0,-1.3333333,0,793.7008)" />
    <path
       id="path33"
       d="m 464.7336,438.1271 c 13.1803,-12.2627 6.861,-22.9178 0.3025,-23.3555 -6.899,-0.4609 -14.0913,9.9385 -0.3025,23.3555 z m -0.2086,4.987 c -43.1067,-41.55 44.6978,-43.1124 0,0"
       style="fill:#f7f7fc;fill-opacity:1;fill-rule:evenodd;stroke:none"
       transform="matrix(1.3333333,0,0,-1.3333333,0,793.7008)" />
    <path
       id="path34"
       d="m 394.0673,427.8214 c 7.8171,0 14.1543,-6.569 14.1543,-14.6726 0,-8.1037 -6.3372,-14.6727 -14.1543,-14.6727 -7.8168,0 -14.1539,6.569 -14.1539,14.6727 0,8.1036 6.3371,14.6726 14.1539,14.6726"
       style="fill:#ffffff;fill-opacity:1;fill-rule:evenodd;stroke:none"
       transform="matrix(1.3333333,0,0,-1.3333333,0,793.7008)" />
    <path
       id="path35"
       d="m 394.3069,422.1011 c 4.6417,0 8.405,-3.901 8.405,-8.7131 0,-4.8121 -3.7633,-8.7131 -8.405,-8.7131 -4.642,0 -8.4053,3.901 -8.4053,8.7131 0,4.8121 3.7633,8.7131 8.4053,8.7131"
       style="fill:#342f92;fill-opacity:1;fill-rule:evenodd;stroke:none"
       transform="matrix(1.3333333,0,0,-1.3333333,0,793.7008)" />
    <path
       id="path36"
       d="m 368.0334,399.1116 c 4.6417,0 8.405,-3.901 8.405,-8.7131 0,-4.8121 -3.7633,-8.7132 -8.405,-8.7132 -4.642,0 -8.4053,3.9011 -8.4053,8.7132 0,4.8121 3.7633,8.7131 8.4053,8.7131 z"
       style="fill:#ffffff;fill-opacity:1;fill-rule:evenodd;stroke:#ffffff;stroke-width:0.5669;stroke-linecap:butt;stroke-linejoin:miter;stroke-miterlimit:22.9256;stroke-dasharray:none;stroke-opacity:1"
       transform="matrix(1.3333333,0,0,-1.3333333,0,793.7008)" />
  </g>
</svg>
