<?xml version="1.0" encoding="UTF-8" standalone="no"?>
<svg
   version="1.1"
   width="245.66075pt"
   height="244.12589pt"
   id="svg11"
   viewBox="0 0 245.66075 244.12588"
   sodipodi:docname="logo-circle.svg"
   inkscape:version="1.4 (86a8ad7, 2024-10-11)"
   xmlns:inkscape="http://www.inkscape.org/namespaces/inkscape"
   xmlns:sodipodi="http://sodipodi.sourceforge.net/DTD/sodipodi-0.dtd"
   xmlns="http://www.w3.org/2000/svg"
   xmlns:svg="http://www.w3.org/2000/svg">
  <defs
     id="defs11" />
  <sodipodi:namedview
     id="namedview11"
     pagecolor="#ffffff"
     bordercolor="#000000"
     borderopacity="0.25"
     inkscape:showpageshadow="2"
     inkscape:pageopacity="0.0"
     inkscape:pagecheckerboard="0"
     inkscape:deskcolor="#d1d1d1"
     inkscape:document-units="pt"
     showgrid="false"
     inkscape:zoom="1.0268353"
     inkscape:cx="163.60948"
     inkscape:cy="276.091"
     inkscape:window-width="1920"
     inkscape:window-height="1017"
     inkscape:window-x="-8"
     inkscape:window-y="-8"
     inkscape:window-maximized="1"
     inkscape:current-layer="svg11" />
  <g
     id="Layer1001"
     transform="translate(-298.11451,-90.293577)">
    <path
       d="M 420.9449,102.1527 A 111.0424,110.2041 0 0 1 531.9873,212.3568 111.0424,110.2041 0 1 1 420.9449,102.1527 Z"
       style="fill:#0f007b;fill-rule:evenodd;stroke:#1b1918;stroke-width:0.5669;stroke-linecap:butt;stroke-linejoin:miter;stroke-dasharray:none"
       id="path2" />
    <path
       d="M 399.4249,99.2743 C 552.295,74.0069 590.4385,293.7802 444.0164,325.3571 373.7552,340.5103 317.2217,289.1699 307.2072,233.4922 294.6881,163.8931 343.0877,108.5864 399.4249,99.2743 Z M 541.8254,232.9671 C 554.7592,159.6258 501.3001,102.6306 442.0979,92.2657 368.1778,79.3253 309.6575,132.0491 299.8194,192.3956 c -12.0492,73.9036 41.6441,131.4626 101.8958,140.5067 73.1237,10.9774 129.3966,-39.1773 140.1102,-99.9352 z"
       style="fill:#150377;fill-rule:evenodd"
       id="path3" />
    <path
       d="m 358.7246,233.1841 26.3161,1.2127 -0.5828,28.2981 -25.4381,-0.9456 z m 32.722,6.7802 c -0.005,-7.354 0.1913,-9.4621 7.6583,-10.5718 7.1701,-1.0652 36.7757,0.3866 41.0282,12.7499 -5.9912,3.4132 -6.288,2.3818 -13.8366,1.0652 -7.5906,-1.3257 -9.1785,-3.5583 -14.7978,1.1122 3.2301,2.1287 -1.6967,-0.0643 4.5443,2.5549 31.2776,13.1284 37.493,-17.4979 62.4933,-12.5842 1.1105,3.7067 4.7545,-5.5971 0.0363,6.4949 -2.0702,5.3061 -28.6246,20.3117 -34.2662,22.4742 -19.5516,7.495 -18.5186,-3.7157 -52.7328,-2.8731 z m -36.1904,-11.6749 -1.5722,39.4709 c 16.3379,1.371 28.6369,0.4122 43.6137,-1.5195 16.5226,-2.1312 22.1683,7.5692 38.2688,5.6425 9.9667,-1.193 24.0168,-9.3879 31.4994,-14.1515 30.9536,-19.705 18.9126,-34.4229 -0.902,-29.2132 -6.7859,1.7841 -13.914,6.6779 -19.0841,8.941 -24.5534,-22.3555 -52.1103,-11.3946 -65.4061,-10.176 -8.9237,0.8178 -18.7139,-0.9481 -26.4175,1.0058 z"
       style="fill:#f7f7fb;fill-rule:evenodd"
       id="path4" />
    <path
       d="m 391.4466,239.9643 0.3141,22.4849 c 7.9007,-0.1946 13.7937,-1.6332 18.6068,-1.0907 16.0321,1.808 18.9019,7.6656 33.9389,1.9011 5.6416,-2.1625 34.1029,-17.009 36.1731,-22.3151 3.8914,-13.1481 -4.7512,-10.397 -17.5944,-4.865 -0.5573,0.2399 -1.1237,0.4856 -1.695,0.7346 -14.0493,6.1223 -32.4532,14.7575 -45.1471,10.0606 -6.241,-2.6192 -1.3142,-0.4262 -4.5443,-2.5549 4.0562,-3.3711 -0.1204,-2.3035 7.1437,-2.5063 0.3389,-0.01 6.6673,1.2218 7.6541,1.3941 7.5486,1.3166 7.8454,2.348 13.8366,-1.0652 -4.2525,-12.3633 -33.8581,-13.8151 -41.0282,-12.7499 -7.467,1.1097 -7.6632,3.2178 -7.6583,10.5718 z"
       style="fill:#0f007b;fill-rule:evenodd"
       id="path5" />
    <path
       d="m 359.0198,261.7493 25.4381,0.9456 0.5828,-28.2981 -26.3161,-1.2127 z"
       style="fill:#110078;fill-rule:evenodd"
       id="path6" />
    <path
       d="m 440.7415,176.663 c 51.5316,58.3076 -53.0856,54.0634 0,0 z m -0.2036,-4.1173 c -17.0717,11.6939 -33.168,49.9569 0.0173,49.9405 30.1465,-0.0157 20.9787,-36 -0.0173,-49.9405 z"
       style="fill:#f3f4fc;fill-rule:evenodd"
       id="path7" />
    <path
       d="m 464.7335,157.1485 c 13.1804,12.2627 6.861,22.9178 0.3026,23.3555 -6.8989,0.4609 -14.0913,-9.9386 -0.3026,-23.3555 z m -0.2085,-4.987 c -43.1067,41.5501 44.6978,43.1124 0,0 z"
       style="fill:#f7f7fb;fill-rule:evenodd"
       id="path8" />
    <path
       d="m 394.0675,167.4541 a 14.1541,14.6728 0 0 1 14.1541,14.6729 14.1541,14.6728 0 1 1 -14.1541,-14.6729 z"
       style="fill:#ffffff;fill-rule:evenodd"
       id="path9" />
    <path
       d="m 394.3068,173.1745 a 8.4051,8.7131 0 0 1 8.4051,8.7132 8.4051,8.7131 0 1 1 -8.4051,-8.7132 z"
       style="fill:#0f007b;fill-rule:evenodd"
       id="path10" />
    <path
       d="m 368.0333,196.1641 a 8.4051,8.7131 0 0 1 8.4051,8.7131 8.4051,8.7131 0 1 1 -8.4051,-8.7131 z"
       style="fill:#ffffff;fill-rule:evenodd;stroke:#ffffff;stroke-width:0.5669;stroke-linecap:butt;stroke-linejoin:miter;stroke-dasharray:none"
       id="path11" />
  </g>
</svg>
